<svg width="63" height="24" viewBox="0 0 63 24" fill="none" xmlns="http://www.w3.org/2000/svg">
<g clip-path="url(#clip0_383_37381)">
<mask id="mask0_383_37381" style="mask-type:luminance" maskUnits="userSpaceOnUse" x="28" y="0" width="21" height="24">
<path d="M32.421 1.29161L44.6304 0.0181011C46.7242 -0.200069 48.4596 1.58588 48.1678 3.65089L45.6696 21.2415C45.3932 23.1898 43.4222 24.4329 41.523 23.8596L29.9177 20.3485C28.7761 20.0035 28.0594 18.8873 28.2232 17.7153L30.2709 3.35154C30.4296 2.25054 31.3203 1.4083 32.421 1.29161Z" fill="white"/>
</mask>
<g mask="url(#mask0_383_37381)">
<mask id="mask1_383_37381" style="mask-type:luminance" maskUnits="userSpaceOnUse" x="27" y="-1" width="22" height="26">
<path d="M30.532 1.38293L48.8078 -0.509575L45.1424 24.925L27.9673 19.7245L30.532 1.38293Z" fill="white"/>
</mask>
<g mask="url(#mask1_383_37381)">
<path d="M48.8078 -0.509583L30.532 1.38292L27.9724 19.7244L45.1424 24.9301L48.8078 -0.509583Z" fill="#400755"/>
<path d="M38.7587 14.3666L39.6955 17.3093C39.7211 17.3499 39.716 17.3804 39.7672 17.426C39.844 17.5123 39.9924 17.5072 40.0692 17.3804L42.0299 14.6304C42.1118 14.4985 42.1374 14.326 42.0964 14.1789L40.8934 10.7845C40.8678 10.749 40.8371 10.7439 40.8115 10.7439C40.7808 10.7439 40.7501 10.7744 40.7194 10.7693L38.8508 13.5396C38.7024 13.7882 38.4669 13.8846 38.2212 13.8541L38.1956 13.8491C38.4618 13.9201 38.6819 14.118 38.7587 14.3666Z" fill="#CF002C"/>
<path d="M35.6205 13.4939C35.5949 13.4888 35.5693 13.5193 35.5386 13.5446C35.5079 13.57 35.5079 13.6005 35.5233 13.636L36.455 16.802C36.4857 16.939 36.6086 17.0303 36.7109 17.0506L39.5624 17.629C39.7364 17.6645 39.8644 17.5884 39.9463 17.4311L40.0231 17.3094L39.1016 13.9505C39.1272 13.981 35.6205 13.4939 35.6205 13.4939Z" fill="#DD3E56"/>
<path d="M33.9107 13.2554L31.8221 12.9662C31.8016 12.9612 31.7606 12.9561 31.7555 12.9865C31.6838 13.0373 31.6224 13.1692 31.6531 13.2656L32.3903 15.9648C32.4159 16.0917 32.5183 16.1728 32.6002 16.2185L35.0881 16.7259C35.1342 16.736 35.1701 16.6802 35.1752 16.6498L35.1803 16.6193L34.3407 13.7577C34.2793 13.5041 34.3203 13.2301 34.4431 13.0322L34.4482 13.0018C34.3049 13.159 34.095 13.2808 33.9107 13.2554Z" fill="#CF002C"/>
<path d="M37.2075 8.55209L38.8456 5.96449C38.8507 5.93404 38.8815 5.89853 38.8866 5.86809C38.9071 5.74124 38.8405 5.60933 38.7074 5.6144L36.1324 5.64484C36.0096 5.64484 35.9021 5.7108 35.8355 5.83257L34.141 8.63834C34.1154 8.66878 34.1103 8.69415 34.1308 8.72967C34.1445 8.74996 34.1649 8.77026 34.1922 8.79055L36.6188 8.91232C36.8235 8.92247 37.0283 9.0899 37.1 9.31822L37.0948 9.34866C37.0334 9.08483 37.0744 8.77026 37.2075 8.55209Z" fill="#CF002C"/>
<path d="M36.0302 10.4345C36.0609 10.404 36.066 10.3736 36.0455 10.3431C36.0506 10.3127 36.0302 10.2772 36.0046 10.2772L33.4449 10.0793C33.3323 10.0691 33.2299 10.1503 33.1736 10.2366L31.6583 12.7684C31.5764 12.9003 31.5559 13.0423 31.5969 13.1946L31.643 13.3163L34.2231 13.3874L34.4739 12.9612L36.0302 10.4345Z" fill="#DD3E56"/>
<path d="M38.0421 12.2204C38.0557 12.2441 38.0813 12.2576 38.1189 12.261C38.1701 12.2661 38.1752 12.2356 38.2059 12.2356L40.1717 9.27764C40.2485 9.14573 40.2741 8.98337 40.2331 8.84638L39.1683 5.82751C39.1069 5.70066 38.984 5.60426 38.8714 5.60426H38.7383L36.967 8.82101L37.1513 9.33853L38.0421 12.2204Z" fill="#DD3E56"/>
</g>
</g>
<path d="M44.6541 0.266602C46.5882 0.0667786 48.1881 1.71602 47.9207 3.61426L45.4236 21.2061C45.1706 23.0013 43.3527 24.1494 41.5974 23.6201L29.989 20.1084C29.0272 19.8187 28.4048 18.9209 28.4529 17.9443L28.4714 17.748L30.5203 3.38086V3.37988C30.6577 2.4028 31.453 1.64438 32.4441 1.54004L44.6541 0.266602Z" stroke="#ECECEF" stroke-width="0.5" stroke-miterlimit="10"/>
<mask id="mask2_383_37381" style="mask-type:luminance" maskUnits="userSpaceOnUse" x="14" y="0" width="21" height="24">
<path d="M18.421 1.29161L30.6304 0.0181011C32.7242 -0.200069 34.4596 1.58588 34.1678 3.65089L31.6696 21.2415C31.3932 23.1898 29.4223 24.4329 27.523 23.8596L15.9177 20.3485C14.7761 20.0035 14.0594 18.8873 14.2232 17.7153L16.2709 3.35154C16.4296 2.25054 17.3203 1.4083 18.421 1.29161Z" fill="white"/>
</mask>
<g mask="url(#mask2_383_37381)">
<mask id="mask3_383_37381" style="mask-type:luminance" maskUnits="userSpaceOnUse" x="13" y="-1" width="22" height="26">
<path d="M16.5269 1.38293L34.8078 -0.509575L31.1373 24.925L13.9673 19.7245L16.5269 1.38293Z" fill="white"/>
</mask>
<g mask="url(#mask3_383_37381)">
<path d="M34.8078 -0.509575L16.5269 1.38293L13.9673 19.7245L31.1373 24.9301L34.8078 -0.509575Z" fill="#DB0011"/>
<path d="M28.9052 11.8652L26.1305 7.91281L25.0964 15.1885L28.9052 11.8652Z" fill="white"/>
<path d="M22.6698 11.2767L26.1355 7.91282L20.4788 7.74538L22.6698 11.2767Z" fill="white"/>
<path d="M17.6172 10.7998L19.5574 14.3006L20.4789 7.75045L17.6172 10.7998Z" fill="white"/>
<path d="M22.6699 11.2767L19.5574 14.3006L25.1015 15.1936L22.6699 11.2767Z" fill="white"/>
</g>
</g>
<path d="M30.6541 0.266602C32.5882 0.0667786 34.1881 1.71602 33.9207 3.61426L31.4236 21.2061C31.1706 23.0013 29.3527 24.1494 27.5974 23.6201L15.989 20.1084C15.0272 19.8187 14.4048 18.9209 14.4529 17.9443L14.4714 17.748L16.5203 3.38086V3.37988C16.6577 2.4028 17.453 1.64438 18.4441 1.54004L30.6541 0.266602Z" stroke="#ECECEF" stroke-width="0.5" stroke-miterlimit="10"/>
<mask id="mask4_383_37381" style="mask-type:luminance" maskUnits="userSpaceOnUse" x="0" y="0" width="21" height="24">
<path d="M4.42098 1.29161L16.6304 0.0181011C18.7242 -0.200069 20.4596 1.58588 20.1678 3.65089L17.6696 21.2415C17.3932 23.1898 15.4223 24.4329 13.523 23.8596L1.91766 20.3435C0.776069 19.9984 0.0593738 18.8822 0.22319 17.7102L2.27089 3.34647C2.42959 2.25054 3.32034 1.4083 4.42098 1.29161Z" fill="white"/>
</mask>
<g mask="url(#mask4_383_37381)">
<mask id="mask5_383_37381" style="mask-type:luminance" maskUnits="userSpaceOnUse" x="-1" y="-1" width="22" height="26">
<path d="M2.52691 1.38293L20.8078 -0.509575L17.1373 24.925L-0.0327148 19.7245L2.52691 1.38293Z" fill="white"/>
</mask>
<g mask="url(#mask5_383_37381)">
<path d="M20.8078 -0.509575L2.52691 1.38293L-0.0327148 19.7245L17.1373 24.9301L20.8078 -0.509575Z" fill="#00AFE9"/>
<path d="M9.20229 4.75695C8.92585 4.7671 8.86442 4.82798 8.74668 4.95483H8.64429C8.44464 4.9599 8.1426 4.99542 7.89688 5.21866C7.65116 5.40639 7.50782 5.74125 7.59996 5.94928C7.59996 5.94928 7.68699 5.82751 7.95831 5.82751H8.08117C8.44464 5.88839 8.65453 6.13193 8.54191 6.75093C8.42928 7.36992 8.13237 8.07517 7.37472 8.0498C7.37472 8.0498 7.27745 8.04473 7.19042 8.01428C6.84232 7.97369 6.79112 7.66927 6.79112 7.66927C6.79112 7.66927 7.10852 7.58809 7.18019 7.10609C7.22626 6.77629 7.03173 6.47187 6.74505 6.3501C6.65802 6.31966 6.5198 6.28922 6.40718 6.28922C6.04371 6.28922 5.60857 6.49217 5.27582 6.95895C4.52329 7.98384 4.26733 9.50089 4.19566 10.9165C4.12399 12.3371 4.6308 13.7679 4.64104 13.8288C4.65127 13.8491 4.66493 13.8609 4.68199 13.8643C4.69905 13.8677 4.70759 13.8592 4.70759 13.8389C5.04546 13.499 5.43452 13.017 5.59834 12.672C5.71608 12.809 5.60346 13.1235 5.47035 13.4077C5.33725 13.6918 5.12225 14.1078 5.0557 14.2499C4.97379 14.3564 4.88164 14.5239 4.97891 14.6304C4.99938 14.6355 4.99938 14.6659 5.01986 14.6659C5.15296 14.6862 5.51643 14.4173 5.96692 13.844C6.48909 13.1844 6.79112 12.5756 6.79112 12.5756C6.81672 12.5806 6.84743 12.677 6.82696 12.8293C6.80136 13.0119 6.56076 13.6867 6.16657 14.2753C5.80311 14.8587 5.47036 15.1987 5.41404 15.2799C5.38333 15.3357 5.4038 15.3712 5.41916 15.4016C5.43964 15.4372 5.8543 16.1272 6.53004 16.7918C7.33376 17.5986 7.73818 17.8117 7.73818 17.8117C7.73818 17.8117 8.18356 17.7812 9.22789 17.3499C10.1596 16.9745 10.8609 16.4316 10.8968 16.3707C10.9275 16.3453 10.9633 16.3149 10.9428 16.2439C10.9019 16.1373 10.6562 15.6553 10.4002 14.9095C10.1698 14.1789 10.1135 13.4127 10.1186 13.2149C10.1442 13.0221 10.2108 12.9612 10.2415 12.9358C10.2415 12.9358 10.3848 13.6816 10.7688 14.5036C11.1169 15.2646 11.4599 15.6959 11.6288 15.7213C11.6493 15.7247 11.6698 15.7162 11.6902 15.6959C11.8182 15.6147 11.7568 15.4321 11.721 15.2596C11.6544 15.1124 11.5264 14.5848 11.4957 14.2042C11.465 13.8288 11.424 13.4838 11.6135 13.3721C11.7261 13.7933 11.9872 14.4427 12.3302 14.9399L12.3558 14.9805C12.3558 14.9805 12.3916 14.9501 12.4172 14.9551C12.453 14.9247 13.5997 13.4888 14.0605 11.7891C14.5263 10.0742 14.6901 8.26797 14.0349 7.00969C13.7482 6.46172 13.2465 6.22326 12.7755 6.22326C12.6322 6.22326 12.4837 6.25877 12.3609 6.28922C11.9411 6.42113 11.6442 6.74585 11.593 7.10609C11.5162 7.62868 11.8694 7.7403 11.8694 7.7403C11.8694 7.7403 11.7158 8.03458 11.2858 8.08532C11.1988 8.11576 11.1169 8.11069 11.0606 8.11069C10.7585 8.10054 10.5077 7.96355 10.3183 7.57287C10.1596 7.18219 10.2671 6.41606 10.2773 6.16237C10.2876 5.90869 10.3439 5.29984 10.1391 5.08167C9.93946 4.83306 9.68862 4.77725 9.35587 4.75695C9.25348 4.75695 9.22789 4.75695 9.20229 4.75695Z" fill="white"/>
</g>
</g>
<path d="M16.6541 0.266602C18.5882 0.0667786 20.1881 1.71602 19.9207 3.61426L17.4236 21.2061C17.1706 23.0013 15.3527 24.1494 13.5974 23.6201L1.98901 20.1084C1.0272 19.8187 0.404788 18.9209 0.452881 17.9443L0.471436 17.748L2.52026 3.38086V3.37988C2.65767 2.4028 3.45296 1.64438 4.44409 1.54004L16.6541 0.266602Z" stroke="#ECECEF" stroke-width="0.5" stroke-miterlimit="10"/>
<rect x="50.2" y="6" width="12" height="12" rx="2" fill="#E2E2E6"/>
<path d="M52.2 12.7515V11.2646H55.4388V8H56.9773V11.2646H60.2V12.7515H56.9773V16H55.4388V12.7515H52.2Z" fill="#1F1F25"/>
</g>
<defs>
<clipPath id="clip0_383_37381">
<rect width="62.2" height="24" fill="white"/>
</clipPath>
</defs>
</svg>
