<svg width="91" height="24" viewBox="0 0 91 24" fill="none" xmlns="http://www.w3.org/2000/svg">
<g clip-path="url(#clip0_179_8963)">
<mask id="mask0_179_8963" style="mask-type:luminance" maskUnits="userSpaceOnUse" x="56" y="0" width="21" height="24">
<path d="M60.4212 1.29161L72.6306 0.0181011C74.7244 -0.200069 76.4598 1.58588 76.168 3.65089L73.6698 21.2415C73.3934 23.1898 71.4225 24.4329 69.5233 23.8596L57.9179 20.3485C56.7763 20.0035 56.0596 18.8873 56.2234 17.7153L58.2711 3.35154C58.4298 2.25054 59.3155 1.4083 60.4212 1.29161Z" fill="white"/>
</mask>
<g mask="url(#mask0_179_8963)">
<mask id="mask1_179_8963" style="mask-type:luminance" maskUnits="userSpaceOnUse" x="55" y="-1" width="22" height="26">
<path d="M58.5274 1.38293L76.8083 -0.509575L73.1377 24.925L55.9678 19.7245L58.5274 1.38293Z" fill="white"/>
</mask>
<g mask="url(#mask1_179_8963)">
<path d="M58.5274 1.38292L55.9678 19.7245L73.1377 24.9301L76.8083 -0.504509L58.5274 1.38292ZM63.7337 17.8776C60.8413 17.2333 58.9523 15.2393 59.2185 13.3417C59.4079 11.9819 60.6519 10.9215 62.4232 10.4852C62.3259 11.023 62.3412 11.571 62.5051 12.0783L63.662 16.0663C63.7439 16.3707 63.8002 16.7005 63.8054 17.0252L63.8719 16.9085C64.435 16.0511 64.5988 14.8841 64.3019 13.8744L63.3446 10.7186C63.0682 9.77487 63.2269 8.65357 63.7593 7.78597L63.8514 7.63375C63.8565 7.94325 63.9129 8.25275 63.9948 8.5318L64.5732 10.3178L65.4947 13.2352C65.5869 13.5396 65.6483 13.8744 65.6534 14.2042L65.7558 14.0571C66.3496 13.1489 66.5186 11.9464 66.2012 10.9368L65.162 7.83163C64.8599 6.88284 65.0237 5.73111 65.592 4.78232L65.6944 4.62503C65.6995 4.9396 65.7609 5.25417 65.8531 5.53323L67.1841 9.46537C67.3428 9.93723 67.3837 10.4395 67.3428 10.9317C69.4212 11.7993 70.7931 13.3874 70.5525 15.0668C70.1737 17.4007 66.9844 18.6032 63.7337 17.8776Z" fill="#EC0000"/>
<path d="M70.5113 15.0566C70.1735 17.4007 66.9483 18.6285 63.7283 17.9081C60.8615 17.2688 58.9469 15.2647 59.2131 13.3721C59.4025 12.0124 60.6465 10.9571 62.4127 10.5156C62.3154 11.0535 62.3308 11.6014 62.4946 12.1088L63.6515 16.0967C63.7334 16.4012 63.7897 16.731 63.7949 17.0557L63.8665 16.9085C64.4297 16.0511 64.5935 14.8841 64.2966 13.8744L63.3392 10.7186C63.0628 9.77487 63.2215 8.65358 63.7539 7.78597L63.8461 7.63376C63.8512 7.94326 63.9075 8.25276 63.9894 8.53181L64.5679 10.3178L65.4893 13.2352C65.5815 13.5396 65.6429 13.8744 65.648 14.2042L65.7504 14.0571C66.3443 13.1489 66.5132 11.9464 66.1958 10.9368L65.1566 7.83164C64.8545 6.88285 65.0184 5.73111 65.5866 4.78232L65.689 4.62504C65.6941 4.93961 65.7555 5.25418 65.8477 5.53324L67.1787 9.46538C67.3374 9.93723 67.3783 10.4395 67.3374 10.9317C69.38 11.7891 70.7519 13.3772 70.5113 15.0566Z" fill="white"/>
</g>
</g>
<path d="M72.6543 0.266602C74.5885 0.0667786 76.1883 1.71602 75.9209 3.61426L73.4238 21.2061C73.1709 23.0013 71.353 24.1494 69.5977 23.6201L57.9893 20.1084C57.0274 19.8187 56.405 18.9209 56.4531 17.9443L56.4717 17.748L58.5205 3.38086V3.37988C58.6579 2.4028 59.4532 1.64438 60.4443 1.54004L72.6543 0.266602Z" stroke="#ECECEF" stroke-width="0.5" stroke-miterlimit="10"/>
<mask id="mask2_179_8963" style="mask-type:luminance" maskUnits="userSpaceOnUse" x="42" y="0" width="21" height="24">
<path d="M46.4212 1.29161L58.6306 0.0181011C60.7244 -0.200069 62.4598 1.58588 62.168 3.65089L59.6698 21.2415C59.3934 23.1898 57.4225 24.4329 55.5232 23.8596L43.9179 20.3485C42.7763 20.0035 42.0596 18.8873 42.2234 17.7153L44.2711 3.35154C44.4298 2.25054 45.3206 1.4083 46.4212 1.29161Z" fill="white"/>
</mask>
<g mask="url(#mask2_179_8963)">
<mask id="mask3_179_8963" style="mask-type:luminance" maskUnits="userSpaceOnUse" x="41" y="-1" width="22" height="26">
<path d="M44.5325 1.38293L62.8083 -0.509575L59.1429 24.925L41.9678 19.7245L44.5325 1.38293Z" fill="white"/>
</mask>
<g mask="url(#mask3_179_8963)">
<path d="M62.8083 -0.509575L44.5274 1.38293L41.9678 19.7245L59.1377 24.9301L62.8083 -0.509575Z" fill="#112231"/>
<path d="M56.0658 15.0617C56.0402 15.2342 55.9531 15.4016 55.8456 15.4879L52.8714 17.9588C52.7075 18.0958 52.5079 17.9131 52.5335 17.7203L53.4396 11.368L57.0333 8.06501H57.064L56.0658 15.0617Z" fill="#FF4F40"/>
<path d="M55.2982 5.68037C55.2214 5.5789 55.0781 5.58397 54.9757 5.68545L50.8906 9.73936L50.8394 9.73428L50.1943 14.2753L50.2251 14.4072L53.4297 11.434L57.0644 8.06503L55.2982 5.68037Z" fill="#BBF42E"/>
<path d="M45.4952 13.4736C45.4747 13.6157 45.4952 13.7628 45.5463 13.8592L47.0719 16.736C47.164 16.9085 47.3586 16.8274 47.3842 16.6498L48.1981 10.8911L46.345 7.71494H46.3245L45.4952 13.4736Z" fill="#0088A6"/>
<path d="M48.3465 5.7514C48.2902 5.66515 48.1776 5.66515 48.0957 5.7514L46.2988 7.74031L48.1878 10.952L50.2253 14.3767L50.8806 9.73936L48.3465 5.7514Z" fill="#48D3B2"/>
</g>
</g>
<path d="M58.6543 0.266602C60.5885 0.0667786 62.1883 1.71602 61.9209 3.61426L59.4238 21.2061C59.1709 23.0013 57.353 24.1494 55.5977 23.6201L43.9893 20.1084C43.0274 19.8187 42.405 18.9209 42.4531 17.9443L42.4717 17.748L44.5205 3.38086V3.37988C44.6579 2.4028 45.4532 1.64438 46.4443 1.54004L58.6543 0.266602Z" stroke="#ECECEF" stroke-width="0.5" stroke-miterlimit="10"/>
<mask id="mask4_179_8963" style="mask-type:luminance" maskUnits="userSpaceOnUse" x="28" y="0" width="21" height="24">
<path d="M32.4212 1.29161L44.6306 0.0181011C46.7244 -0.200069 48.4598 1.58588 48.168 3.65089L45.6698 21.2415C45.3934 23.1898 43.4225 24.4329 41.5233 23.8596L29.9179 20.3485C28.7763 20.0035 28.0596 18.8873 28.2234 17.7153L30.2711 3.35154C30.4298 2.25054 31.3206 1.4083 32.4212 1.29161Z" fill="white"/>
</mask>
<g mask="url(#mask4_179_8963)">
<mask id="mask5_179_8963" style="mask-type:luminance" maskUnits="userSpaceOnUse" x="27" y="-1" width="22" height="26">
<path d="M30.5325 1.38293L48.8083 -0.509575L45.1429 24.925L27.9678 19.7245L30.5325 1.38293Z" fill="white"/>
</mask>
<g mask="url(#mask5_179_8963)">
<path d="M48.8085 -0.509583L30.5328 1.38292L27.9731 19.7244L45.1431 24.9301L48.8085 -0.509583Z" fill="#400755"/>
<path d="M38.7594 14.3666L39.6962 17.3094C39.7218 17.35 39.7167 17.3804 39.7679 17.4261C39.8447 17.5123 39.9931 17.5072 40.0699 17.3804L42.0306 14.6304C42.1125 14.4985 42.1381 14.326 42.0972 14.1789L40.8941 10.7845C40.8685 10.749 40.8378 10.744 40.8122 10.744C40.7815 10.744 40.7508 10.7744 40.7201 10.7693L38.8516 13.5396C38.7031 13.7882 38.4676 13.8846 38.2219 13.8542L38.1963 13.8491C38.4625 13.9201 38.6826 14.118 38.7594 14.3666Z" fill="#CF002C"/>
<path d="M35.621 13.4939C35.5954 13.4888 35.5698 13.5193 35.5391 13.5446C35.5084 13.57 35.5084 13.6005 35.5238 13.636L36.4555 16.802C36.4862 16.939 36.609 17.0303 36.7114 17.0506L39.5628 17.629C39.7369 17.6645 39.8649 17.5884 39.9468 17.4311L40.0236 17.3094L39.1021 13.9505C39.1277 13.981 35.621 13.4939 35.621 13.4939Z" fill="#DD3E56"/>
<path d="M33.9112 13.2554L31.8226 12.9662C31.8021 12.9612 31.7611 12.9561 31.756 12.9865C31.6843 13.0373 31.6229 13.1692 31.6536 13.2656L32.3908 15.9648C32.4164 16.0917 32.5188 16.1728 32.6007 16.2185L35.0886 16.7259C35.1347 16.736 35.1705 16.6802 35.1757 16.6498L35.1808 16.6193L34.3412 13.7577C34.2798 13.5041 34.3207 13.2301 34.4436 13.0322L34.4487 13.0018C34.3054 13.159 34.0955 13.2808 33.9112 13.2554Z" fill="#CF002C"/>
<path d="M37.2084 8.55209L38.8466 5.96449C38.8517 5.93404 38.8824 5.89853 38.8876 5.86809C38.908 5.74124 38.8415 5.60933 38.7084 5.6144L36.1334 5.64484C36.0105 5.64484 35.903 5.7108 35.8365 5.83257L34.142 8.63834C34.1164 8.66878 34.1113 8.69415 34.1318 8.72967C34.1454 8.74996 34.1659 8.77026 34.1932 8.79055L36.6197 8.91232C36.8245 8.92247 37.0293 9.0899 37.1009 9.31822L37.0958 9.34866C37.0344 9.08483 37.0753 8.77026 37.2084 8.55209Z" fill="#CF002C"/>
<path d="M36.0309 10.4345C36.0616 10.404 36.0667 10.3736 36.0463 10.3431C36.0514 10.3127 36.0309 10.2772 36.0053 10.2772L33.4457 10.0793C33.3331 10.0691 33.2307 10.1503 33.1744 10.2366L31.6591 12.7684C31.5771 12.9003 31.5567 13.0423 31.5976 13.1946L31.6437 13.3163L34.2238 13.3874L34.4746 12.9612L36.0309 10.4345Z" fill="#DD3E56"/>
<path d="M38.0428 12.2204C38.0565 12.2441 38.0821 12.2576 38.1196 12.261C38.1708 12.2661 38.1759 12.2356 38.2066 12.2356L40.1724 9.27763C40.2492 9.14571 40.2748 8.98335 40.2339 8.84636L39.1691 5.82749C39.1076 5.70065 38.9848 5.60425 38.8721 5.60425H38.739L36.9678 8.82099L37.1521 9.33851L38.0428 12.2204Z" fill="#DD3E56"/>
</g>
</g>
<path d="M44.6543 0.266602C46.5885 0.0667786 48.1883 1.71602 47.9209 3.61426L45.4238 21.2061C45.1709 23.0013 43.353 24.1494 41.5977 23.6201L29.9893 20.1084C29.0274 19.8187 28.405 18.9209 28.4531 17.9443L28.4717 17.748L30.5205 3.38086V3.37988C30.6579 2.4028 31.4532 1.64438 32.4443 1.54004L44.6543 0.266602Z" stroke="#ECECEF" stroke-width="0.5" stroke-miterlimit="10"/>
<mask id="mask6_179_8963" style="mask-type:luminance" maskUnits="userSpaceOnUse" x="14" y="0" width="21" height="24">
<path d="M18.4212 1.29161L30.6306 0.0181011C32.7244 -0.200069 34.4598 1.58588 34.168 3.65089L31.6698 21.2415C31.3934 23.1898 29.4225 24.4329 27.5233 23.8596L15.9179 20.3485C14.7763 20.0035 14.0596 18.8873 14.2234 17.7153L16.2711 3.35154C16.4298 2.25054 17.3206 1.4083 18.4212 1.29161Z" fill="white"/>
</mask>
<g mask="url(#mask6_179_8963)">
<mask id="mask7_179_8963" style="mask-type:luminance" maskUnits="userSpaceOnUse" x="13" y="-1" width="22" height="26">
<path d="M16.5274 1.38293L34.8083 -0.509575L31.1377 24.925L13.9678 19.7245L16.5274 1.38293Z" fill="white"/>
</mask>
<g mask="url(#mask7_179_8963)">
<path d="M34.8083 -0.509575L16.5274 1.38293L13.9678 19.7245L31.1377 24.9301L34.8083 -0.509575Z" fill="#DB0011"/>
<path d="M28.9059 11.8652L26.1313 7.91281L25.0972 15.1885L28.9059 11.8652Z" fill="white"/>
<path d="M22.6705 11.2767L26.1363 7.9128L20.4795 7.74537L22.6705 11.2767Z" fill="white"/>
<path d="M17.6177 10.7998L19.5579 14.3007L20.4793 7.75047L17.6177 10.7998Z" fill="white"/>
<path d="M22.6701 11.2767L19.5576 14.3006L25.1018 15.1936L22.6701 11.2767Z" fill="white"/>
</g>
</g>
<path d="M30.6543 0.266602C32.5885 0.0667786 34.1883 1.71602 33.9209 3.61426L31.4238 21.2061C31.1709 23.0013 29.353 24.1494 27.5977 23.6201L15.9893 20.1084C15.0274 19.8187 14.405 18.9209 14.4531 17.9443L14.4717 17.748L16.5205 3.38086V3.37988C16.6579 2.4028 17.4532 1.64438 18.4443 1.54004L30.6543 0.266602Z" stroke="#ECECEF" stroke-width="0.5" stroke-miterlimit="10"/>
<mask id="mask8_179_8963" style="mask-type:luminance" maskUnits="userSpaceOnUse" x="0" y="0" width="21" height="24">
<path d="M4.42122 1.29161L16.6306 0.0181011C18.7244 -0.200069 20.4598 1.58588 20.168 3.65089L17.6698 21.2415C17.3934 23.1898 15.4225 24.4329 13.5233 23.8596L1.91791 20.3435C0.776313 19.9984 0.0596179 18.8822 0.223434 17.7102L2.27114 3.34647C2.42983 2.25054 3.32058 1.4083 4.42122 1.29161Z" fill="white"/>
</mask>
<g mask="url(#mask8_179_8963)">
<mask id="mask9_179_8963" style="mask-type:luminance" maskUnits="userSpaceOnUse" x="-1" y="-1" width="22" height="26">
<path d="M2.5274 1.38293L20.8083 -0.509575L17.1377 24.925L-0.0322266 19.7245L2.5274 1.38293Z" fill="white"/>
</mask>
<g mask="url(#mask9_179_8963)">
<path d="M20.8083 -0.509575L2.5274 1.38293L-0.0322266 19.7245L17.1377 24.9301L20.8083 -0.509575Z" fill="#00AFE9"/>
<path d="M9.20302 4.75695C8.92658 4.7671 8.86515 4.82798 8.74741 4.95483H8.64502C8.44537 4.9599 8.14334 4.99542 7.89761 5.21866C7.65189 5.40639 7.50855 5.74125 7.6007 5.94928C7.6007 5.94928 7.68772 5.82751 7.95904 5.82751H8.08191C8.44537 5.88839 8.65526 6.13193 8.54264 6.75093C8.43002 7.36992 8.1331 8.07517 7.37545 8.0498C7.37545 8.0498 7.27818 8.04473 7.19116 8.01428C6.84305 7.97369 6.79186 7.66927 6.79186 7.66927C6.79186 7.66927 7.10925 7.58809 7.18092 7.10609C7.22699 6.77629 7.03246 6.47187 6.74578 6.3501C6.65875 6.31966 6.52053 6.28922 6.40791 6.28922C6.04444 6.28922 5.60931 6.49217 5.27656 6.95895C4.52403 7.98384 4.26806 9.50089 4.19639 10.9165C4.12472 12.3371 4.63153 13.7679 4.64177 13.8288C4.65201 13.8491 4.66566 13.8609 4.68272 13.8643C4.69979 13.8677 4.70832 13.8592 4.70832 13.8389C5.04619 13.499 5.43525 13.017 5.59907 12.672C5.71681 12.809 5.60419 13.1235 5.47109 13.4077C5.33799 13.6918 5.12298 14.1078 5.05643 14.2499C4.97452 14.3564 4.88237 14.5239 4.97964 14.6304C5.00012 14.6355 5.00012 14.6659 5.02059 14.6659C5.15369 14.6862 5.51716 14.4173 5.96765 13.844C6.48982 13.1844 6.79186 12.5756 6.79186 12.5756C6.81745 12.5806 6.84817 12.677 6.82769 12.8293C6.80209 13.0119 6.56149 13.6867 6.16731 14.2753C5.80384 14.8587 5.47109 15.1987 5.41478 15.2799C5.38406 15.3357 5.40454 15.3712 5.41989 15.4016C5.44037 15.4372 5.85503 16.1272 6.53077 16.7918C7.3345 17.5986 7.73892 17.8117 7.73892 17.8117C7.73892 17.8117 8.18429 17.7812 9.22862 17.3499C10.1603 16.9745 10.8617 16.4316 10.8975 16.3707C10.9282 16.3453 10.964 16.3149 10.9436 16.2439C10.9026 16.1373 10.6569 15.6553 10.4009 14.9095C10.1706 14.1789 10.1143 13.4127 10.1194 13.2149C10.145 13.0221 10.2115 12.9612 10.2422 12.9358C10.2422 12.9358 10.3856 13.6816 10.7695 14.5036C11.1176 15.2646 11.4606 15.6959 11.6295 15.7213C11.65 15.7247 11.6705 15.7162 11.691 15.6959C11.819 15.6147 11.7575 15.4321 11.7217 15.2596C11.6551 15.1124 11.5272 14.5848 11.4964 14.2042C11.4657 13.8288 11.4248 13.4838 11.6142 13.3721C11.7268 13.7933 11.9879 14.4427 12.3309 14.9399L12.3565 14.9805C12.3565 14.9805 12.3923 14.9501 12.4179 14.9551C12.4537 14.9247 13.6005 13.4888 14.0612 11.7891C14.527 10.0742 14.6909 8.26797 14.0356 7.00969C13.7489 6.46172 13.2472 6.22326 12.7763 6.22326C12.6329 6.22326 12.4845 6.25877 12.3616 6.28922C11.9418 6.42113 11.6449 6.74585 11.5937 7.10609C11.5169 7.62868 11.8702 7.7403 11.8702 7.7403C11.8702 7.7403 11.7166 8.03458 11.2866 8.08532C11.1995 8.11576 11.1176 8.11069 11.0613 8.11069C10.7593 8.10054 10.5084 7.96355 10.319 7.57287C10.1603 7.18219 10.2678 6.41606 10.2781 6.16237C10.2883 5.90869 10.3446 5.29984 10.1398 5.08167C9.9402 4.83306 9.68935 4.77725 9.3566 4.75695C9.25422 4.75695 9.22862 4.75695 9.20302 4.75695Z" fill="white"/>
</g>
</g>
<path d="M16.6543 0.266602C18.5885 0.0667786 20.1883 1.71602 19.9209 3.61426L17.4238 21.2061C17.1709 23.0013 15.353 24.1494 13.5977 23.6201L1.98926 20.1084C1.02744 19.8187 0.405032 18.9209 0.453125 17.9443L0.47168 17.748L2.52051 3.38086V3.37988C2.65791 2.4028 3.4532 1.64438 4.44434 1.54004L16.6543 0.266602Z" stroke="#ECECEF" stroke-width="0.5" stroke-miterlimit="10"/>
<rect x="78.2002" y="6" width="12" height="12" rx="2" fill="#E2E2E6"/>
<path d="M80.2002 12.7515V11.2646H83.4391V8H84.9775V11.2646H88.2002V12.7515H84.9775V16H83.4391V12.7515H80.2002Z" fill="#1F1F25"/>
</g>
<defs>
<clipPath id="clip0_179_8963">
<rect width="90.2" height="24" fill="white"/>
</clipPath>
</defs>
</svg>
