<svg width="21" height="24" viewBox="0 0 21 24" fill="none" xmlns="http://www.w3.org/2000/svg"><mask id="mask8_179_8963" style="mask-type:luminance" maskUnits="userSpaceOnUse" x="0" y="0" width="21" height="24"><path d="M4.42122 1.29161L16.6306 0.0181011C18.7244 -0.200069 20.4598 1.58588 20.168 3.65089L17.6698 21.2415C17.3934 23.1898 15.4225 24.4329 13.5233 23.8596L1.91791 20.3435C0.776313 19.9984 0.0596179 18.8822 0.223434 17.7102L2.27114 3.34647C2.42983 2.25054 3.32058 1.4083 4.42122 1.29161Z" fill="white"/></mask><g mask="url(#mask8_179_8963)"><mask id="mask9_179_8963" style="mask-type:luminance" maskUnits="userSpaceOnUse" x="-1" y="-1" width="22" height="26"><path d="M2.5274 1.38293L20.8083 -0.509575L17.1377 24.925L-0.0322266 19.7245L2.5274 1.38293Z" fill="white"/></mask><g mask="url(#mask9_179_8963)"><path d="M20.8083 -0.509575L2.5274 1.38293L-0.0322266 19.7245L17.1377 24.9301L20.8083 -0.509575Z" fill="#00AFE9"/><path d="M9.20302 4.75695C8.92658 4.7671 8.86515 4.82798 8.74741 4.95483H8.64502C8.44537 4.9599 8.14334 4.99542 7.89761 5.21866C7.65189 5.40639 7.50855 5.74125 7.6007 5.94928C7.6007 5.94928 7.68772 5.82751 7.95904 5.82751H8.08191C8.44537 5.88839 8.65526 6.13193 8.54264 6.75093C8.43002 7.36992 8.1331 8.07517 7.37545 8.0498C7.37545 8.0498 7.27818 8.04473 7.19116 8.01428C6.84305 7.97369 6.79186 7.66927 6.79186 7.66927C6.79186 7.66927 7.10925 7.58809 7.18092 7.10609C7.22699 6.77629 7.03246 6.47187 6.74578 6.3501C6.65875 6.31966 6.52053 6.28922 6.40791 6.28922C6.04444 6.28922 5.60931 6.49217 5.27656 6.95895C4.52403 7.98384 4.26806 9.50089 4.19639 10.9165C4.12472 12.3371 4.63153 13.7679 4.64177 13.8288C4.65201 13.8491 4.66566 13.8609 4.68272 13.8643C4.69979 13.8677 4.70832 13.8592 4.70832 13.8389C5.04619 13.499 5.43525 13.017 5.59907 12.672C5.71681 12.809 5.60419 13.1235 5.47109 13.4077C5.33799 13.6918 5.12298 14.1078 5.05643 14.2499C4.97452 14.3564 4.88237 14.5239 4.97964 14.6304C5.00012 14.6355 5.00012 14.6659 5.02059 14.6659C5.15369 14.6862 5.51716 14.4173 5.96765 13.844C6.48982 13.1844 6.79186 12.5756 6.79186 12.5756C6.81745 12.5806 6.84817 12.677 6.82769 12.8293C6.80209 13.0119 6.56149 13.6867 6.16731 14.2753C5.80384 14.8587 5.47109 15.1987 5.41478 15.2799C5.38406 15.3357 5.40454 15.3712 5.41989 15.4016C5.44037 15.4372 5.85503 16.1272 6.53077 16.7918C7.3345 17.5986 7.73892 17.8117 7.73892 17.8117C7.73892 17.8117 8.18429 17.7812 9.22862 17.3499C10.1603 16.9745 10.8617 16.4316 10.8975 16.3707C10.9282 16.3453 10.964 16.3149 10.9436 16.2439C10.9026 16.1373 10.6569 15.6553 10.4009 14.9095C10.1706 14.1789 10.1143 13.4127 10.1194 13.2149C10.145 13.0221 10.2115 12.9612 10.2422 12.9358C10.2422 12.9358 10.3856 13.6816 10.7695 14.5036C11.1176 15.2646 11.4606 15.6959 11.6295 15.7213C11.65 15.7247 11.6705 15.7162 11.691 15.6959C11.819 15.6147 11.7575 15.4321 11.7217 15.2596C11.6551 15.1124 11.5272 14.5848 11.4964 14.2042C11.4657 13.8288 11.4248 13.4838 11.6142 13.3721C11.7268 13.7933 11.9879 14.4427 12.3309 14.9399L12.3565 14.9805C12.3565 14.9805 12.3923 14.9501 12.4179 14.9551C12.4537 14.9247 13.6005 13.4888 14.0612 11.7891C14.527 10.0742 14.6909 8.26797 14.0356 7.00969C13.7489 6.46172 13.2472 6.22326 12.7763 6.22326C12.6329 6.22326 12.4845 6.25877 12.3616 6.28922C11.9418 6.42113 11.6449 6.74585 11.5937 7.10609C11.5169 7.62868 11.8702 7.7403 11.8702 7.7403C11.8702 7.7403 11.7166 8.03458 11.2866 8.08532C11.1995 8.11576 11.1176 8.11069 11.0613 8.11069C10.7593 8.10054 10.5084 7.96355 10.319 7.57287C10.1603 7.18219 10.2678 6.41606 10.2781 6.16237C10.2883 5.90869 10.3446 5.29984 10.1398 5.08167C9.9402 4.83306 9.68935 4.77725 9.3566 4.75695C9.25422 4.75695 9.22862 4.75695 9.20302 4.75695Z" fill="white"/></g></g><path d="M16.6543 0.266602C18.5885 0.0667786 20.1883 1.71602 19.9209 3.61426L17.4238 21.2061C17.1709 23.0013 15.353 24.1494 13.5977 23.6201L1.98926 20.1084C1.02744 19.8187 0.405032 18.9209 0.453125 17.9443L0.47168 17.748L2.52051 3.38086V3.37988C2.65791 2.4028 3.4532 1.64438 4.44434 1.54004L16.6543 0.266602Z" stroke="#ECECEF" stroke-width="0.5" stroke-miterlimit="10"/></svg>