<svg xmlns="http://www.w3.org/2000/svg" width="200" height="200" viewBox="0 0 200 200">
  <rect width="200" height="200" rx="40" fill="#003A6E"/>
  <path d="M60 140 C60 140 70 80 100 70 C130 60 140 100 140 100 L135 105 C135 105 125 70 100 78 C75 86 70 130 65 140Z" fill="#CF0000"/>
  <path d="M100 65 C85 55 65 75 70 95 C75 115 95 115 100 100 C105 85 115 75 100 65Z" fill="#CF0000" opacity="0.8"/>
  <path d="M100 72 C90 65 78 80 80 95 C82 110 98 108 100 98 C102 88 110 80 100 72Z" fill="#E8352E"/>
</svg>
