<svg width="21" height="24" viewBox="14 0 21 24" fill="none" xmlns="http://www.w3.org/2000/svg"><mask id="mask6_179_8963" style="mask-type:luminance" maskUnits="userSpaceOnUse" x="14" y="0" width="21" height="24"><path d="M18.4212 1.29161L30.6306 0.0181011C32.7244 -0.200069 34.4598 1.58588 34.168 3.65089L31.6698 21.2415C31.3934 23.1898 29.4225 24.4329 27.5233 23.8596L15.9179 20.3485C14.7763 20.0035 14.0596 18.8873 14.2234 17.7153L16.2711 3.35154C16.4298 2.25054 17.3206 1.4083 18.4212 1.29161Z" fill="white"/></mask><g mask="url(#mask6_179_8963)"><mask id="mask7_179_8963" style="mask-type:luminance" maskUnits="userSpaceOnUse" x="13" y="-1" width="22" height="26"><path d="M16.5274 1.38293L34.8083 -0.509575L31.1377 24.925L13.9678 19.7245L16.5274 1.38293Z" fill="white"/></mask><g mask="url(#mask7_179_8963)"><path d="M34.8083 -0.509575L16.5274 1.38293L13.9678 19.7245L31.1377 24.9301L34.8083 -0.509575Z" fill="#DB0011"/><path d="M28.9059 11.8652L26.1313 7.91281L25.0972 15.1885L28.9059 11.8652Z" fill="white"/><path d="M22.6705 11.2767L26.1363 7.9128L20.4795 7.74537L22.6705 11.2767Z" fill="white"/><path d="M17.6177 10.7998L19.5579 14.3007L20.4793 7.75047L17.6177 10.7998Z" fill="white"/><path d="M22.6701 11.2767L19.5576 14.3006L25.1018 15.1936L22.6701 11.2767Z" fill="white"/></g></g><path d="M30.6543 0.266602C32.5885 0.0667786 34.1883 1.71602 33.9209 3.61426L31.4238 21.2061C31.1709 23.0013 29.353 24.1494 27.5977 23.6201L15.9893 20.1084C15.0274 19.8187 14.405 18.9209 14.4531 17.9443L14.4717 17.748L16.5205 3.38086V3.37988C16.6579 2.4028 17.4532 1.64438 18.4443 1.54004L30.6543 0.266602Z" stroke="#ECECEF" stroke-width="0.5" stroke-miterlimit="10"/></svg>