<svg width="21" height="24" viewBox="42 0 21 24" fill="none" xmlns="http://www.w3.org/2000/svg"><mask id="mask2_179_8963" style="mask-type:luminance" maskUnits="userSpaceOnUse" x="42" y="0" width="21" height="24"><path d="M46.4212 1.29161L58.6306 0.0181011C60.7244 -0.200069 62.4598 1.58588 62.168 3.65089L59.6698 21.2415C59.3934 23.1898 57.4225 24.4329 55.5232 23.8596L43.9179 20.3485C42.7763 20.0035 42.0596 18.8873 42.2234 17.7153L44.2711 3.35154C44.4298 2.25054 45.3206 1.4083 46.4212 1.29161Z" fill="white"/></mask><g mask="url(#mask2_179_8963)"><mask id="mask3_179_8963" style="mask-type:luminance" maskUnits="userSpaceOnUse" x="41" y="-1" width="22" height="26"><path d="M44.5325 1.38293L62.8083 -0.509575L59.1429 24.925L41.9678 19.7245L44.5325 1.38293Z" fill="white"/></mask><g mask="url(#mask3_179_8963)"><path d="M62.8083 -0.509575L44.5274 1.38293L41.9678 19.7245L59.1377 24.9301L62.8083 -0.509575Z" fill="#112231"/><path d="M56.0658 15.0617C56.0402 15.2342 55.9531 15.4016 55.8456 15.4879L52.8714 17.9588C52.7075 18.0958 52.5079 17.9131 52.5335 17.7203L53.4396 11.368L57.0333 8.06501H57.064L56.0658 15.0617Z" fill="#FF4F40"/><path d="M55.2982 5.68037C55.2214 5.5789 55.0781 5.58397 54.9757 5.68545L50.8906 9.73936L50.8394 9.73428L50.1943 14.2753L50.2251 14.4072L53.4297 11.434L57.0644 8.06503L55.2982 5.68037Z" fill="#BBF42E"/><path d="M45.4952 13.4736C45.4747 13.6157 45.4952 13.7628 45.5463 13.8592L47.0719 16.736C47.164 16.9085 47.3586 16.8274 47.3842 16.6498L48.1981 10.8911L46.345 7.71494H46.3245L45.4952 13.4736Z" fill="#0088A6"/><path d="M48.3465 5.7514C48.2902 5.66515 48.1776 5.66515 48.0957 5.7514L46.2988 7.74031L48.1878 10.952L50.2253 14.3767L50.8806 9.73936L48.3465 5.7514Z" fill="#48D3B2"/></g></g><path d="M58.6543 0.266602C60.5885 0.0667786 62.1883 1.71602 61.9209 3.61426L59.4238 21.2061C59.1709 23.0013 57.353 24.1494 55.5977 23.6201L43.9893 20.1084C43.0274 19.8187 42.405 18.9209 42.4531 17.9443L42.4717 17.748L44.5205 3.38086V3.37988C44.6579 2.4028 45.4532 1.64438 46.4443 1.54004L58.6543 0.266602Z" stroke="#ECECEF" stroke-width="0.5" stroke-miterlimit="10"/></svg>