<svg width="21" height="24" viewBox="28 0 21 24" fill="none" xmlns="http://www.w3.org/2000/svg"><mask id="mask4_179_8963" style="mask-type:luminance" maskUnits="userSpaceOnUse" x="28" y="0" width="21" height="24"><path d="M32.4212 1.29161L44.6306 0.0181011C46.7244 -0.200069 48.4598 1.58588 48.168 3.65089L45.6698 21.2415C45.3934 23.1898 43.4225 24.4329 41.5233 23.8596L29.9179 20.3485C28.7763 20.0035 28.0596 18.8873 28.2234 17.7153L30.2711 3.35154C30.4298 2.25054 31.3206 1.4083 32.4212 1.29161Z" fill="white"/></mask><g mask="url(#mask4_179_8963)"><mask id="mask5_179_8963" style="mask-type:luminance" maskUnits="userSpaceOnUse" x="27" y="-1" width="22" height="26"><path d="M30.5325 1.38293L48.8083 -0.509575L45.1429 24.925L27.9678 19.7245L30.5325 1.38293Z" fill="white"/></mask><g mask="url(#mask5_179_8963)"><path d="M48.8085 -0.509583L30.5328 1.38292L27.9731 19.7244L45.1431 24.9301L48.8085 -0.509583Z" fill="#400755"/><path d="M38.7594 14.3666L39.6962 17.3094C39.7218 17.35 39.7167 17.3804 39.7679 17.4261C39.8447 17.5123 39.9931 17.5072 40.0699 17.3804L42.0306 14.6304C42.1125 14.4985 42.1381 14.326 42.0972 14.1789L40.8941 10.7845C40.8685 10.749 40.8378 10.744 40.8122 10.744C40.7815 10.744 40.7508 10.7744 40.7201 10.7693L38.8516 13.5396C38.7031 13.7882 38.4676 13.8846 38.2219 13.8542L38.1963 13.8491C38.4625 13.9201 38.6826 14.118 38.7594 14.3666Z" fill="#CF002C"/><path d="M35.621 13.4939C35.5954 13.4888 35.5698 13.5193 35.5391 13.5446C35.5084 13.57 35.5084 13.6005 35.5238 13.636L36.4555 16.802C36.4862 16.939 36.609 17.0303 36.7114 17.0506L39.5628 17.629C39.7369 17.6645 39.8649 17.5884 39.9468 17.4311L40.0236 17.3094L39.1021 13.9505C39.1277 13.981 35.621 13.4939 35.621 13.4939Z" fill="#DD3E56"/><path d="M33.9112 13.2554L31.8226 12.9662C31.8021 12.9612 31.7611 12.9561 31.756 12.9865C31.6843 13.0373 31.6229 13.1692 31.6536 13.2656L32.3908 15.9648C32.4164 16.0917 32.5188 16.1728 32.6007 16.2185L35.0886 16.7259C35.1347 16.736 35.1705 16.6802 35.1757 16.6498L35.1808 16.6193L34.3412 13.7577C34.2798 13.5041 34.3207 13.2301 34.4436 13.0322L34.4487 13.0018C34.3054 13.159 34.0955 13.2808 33.9112 13.2554Z" fill="#CF002C"/><path d="M37.2084 8.55209L38.8466 5.96449C38.8517 5.93404 38.8824 5.89853 38.8876 5.86809C38.908 5.74124 38.8415 5.60933 38.7084 5.6144L36.1334 5.64484C36.0105 5.64484 35.903 5.7108 35.8365 5.83257L34.142 8.63834C34.1164 8.66878 34.1113 8.69415 34.1318 8.72967C34.1454 8.74996 34.1659 8.77026 34.1932 8.79055L36.6197 8.91232C36.8245 8.92247 37.0293 9.0899 37.1009 9.31822L37.0958 9.34866C37.0344 9.08483 37.0753 8.77026 37.2084 8.55209Z" fill="#CF002C"/><path d="M36.0309 10.4345C36.0616 10.404 36.0667 10.3736 36.0463 10.3431C36.0514 10.3127 36.0309 10.2772 36.0053 10.2772L33.4457 10.0793C33.3331 10.0691 33.2307 10.1503 33.1744 10.2366L31.6591 12.7684C31.5771 12.9003 31.5567 13.0423 31.5976 13.1946L31.6437 13.3163L34.2238 13.3874L34.4746 12.9612L36.0309 10.4345Z" fill="#DD3E56"/><path d="M38.0428 12.2204C38.0565 12.2441 38.0821 12.2576 38.1196 12.261C38.1708 12.2661 38.1759 12.2356 38.2066 12.2356L40.1724 9.27763C40.2492 9.14571 40.2748 8.98335 40.2339 8.84636L39.1691 5.82749C39.1076 5.70065 38.9848 5.60425 38.8721 5.60425H38.739L36.9678 8.82099L37.1521 9.33851L38.0428 12.2204Z" fill="#DD3E56"/></g></g><path d="M44.6543 0.266602C46.5885 0.0667786 48.1883 1.71602 47.9209 3.61426L45.4238 21.2061C45.1709 23.0013 43.353 24.1494 41.5977 23.6201L29.9893 20.1084C29.0274 19.8187 28.405 18.9209 28.4531 17.9443L28.4717 17.748L30.5205 3.38086V3.37988C30.6579 2.4028 31.4532 1.64438 32.4443 1.54004L44.6543 0.266602Z" stroke="#ECECEF" stroke-width="0.5" stroke-miterlimit="10"/></svg>