<svg width="21" height="24" viewBox="56 0 21 24" fill="none" xmlns="http://www.w3.org/2000/svg"><mask id="mask0_179_8963" style="mask-type:luminance" maskUnits="userSpaceOnUse" x="56" y="0" width="21" height="24"><path d="M60.4212 1.29161L72.6306 0.0181011C74.7244 -0.200069 76.4598 1.58588 76.168 3.65089L73.6698 21.2415C73.3934 23.1898 71.4225 24.4329 69.5233 23.8596L57.9179 20.3485C56.7763 20.0035 56.0596 18.8873 56.2234 17.7153L58.2711 3.35154C58.4298 2.25054 59.3155 1.4083 60.4212 1.29161Z" fill="white"/></mask><g mask="url(#mask0_179_8963)"><mask id="mask1_179_8963" style="mask-type:luminance" maskUnits="userSpaceOnUse" x="55" y="-1" width="22" height="26"><path d="M58.5274 1.38293L76.8083 -0.509575L73.1377 24.925L55.9678 19.7245L58.5274 1.38293Z" fill="white"/></mask><g mask="url(#mask1_179_8963)"><path d="M58.5274 1.38292L55.9678 19.7245L73.1377 24.9301L76.8083 -0.504509L58.5274 1.38292ZM63.7337 17.8776C60.8413 17.2333 58.9523 15.2393 59.2185 13.3417C59.4079 11.9819 60.6519 10.9215 62.4232 10.4852C62.3259 11.023 62.3412 11.571 62.5051 12.0783L63.662 16.0663C63.7439 16.3707 63.8002 16.7005 63.8054 17.0252L63.8719 16.9085C64.435 16.0511 64.5988 14.8841 64.3019 13.8744L63.3446 10.7186C63.0682 9.77487 63.2269 8.65357 63.7593 7.78597L63.8514 7.63375C63.8565 7.94325 63.9129 8.25275 63.9948 8.5318L64.5732 10.3178L65.4947 13.2352C65.5869 13.5396 65.6483 13.8744 65.6534 14.2042L65.7558 14.0571C66.3496 13.1489 66.5186 11.9464 66.2012 10.9368L65.162 7.83163C64.8599 6.88284 65.0237 5.73111 65.592 4.78232L65.6944 4.62503C65.6995 4.9396 65.7609 5.25417 65.8531 5.53323L67.1841 9.46537C67.3428 9.93723 67.3837 10.4395 67.3428 10.9317C69.4212 11.7993 70.7931 13.3874 70.5525 15.0668C70.1737 17.4007 66.9844 18.6032 63.7337 17.8776Z" fill="#EC0000"/><path d="M70.5113 15.0566C70.1735 17.4007 66.9483 18.6285 63.7283 17.9081C60.8615 17.2688 58.9469 15.2647 59.2131 13.3721C59.4025 12.0124 60.6465 10.9571 62.4127 10.5156C62.3154 11.0535 62.3308 11.6014 62.4946 12.1088L63.6515 16.0967C63.7334 16.4012 63.7897 16.731 63.7949 17.0557L63.8665 16.9085C64.4297 16.0511 64.5935 14.8841 64.2966 13.8744L63.3392 10.7186C63.0628 9.77487 63.2215 8.65358 63.7539 7.78597L63.8461 7.63376C63.8512 7.94326 63.9075 8.25276 63.9894 8.53181L64.5679 10.3178L65.4893 13.2352C65.5815 13.5396 65.6429 13.8744 65.648 14.2042L65.7504 14.0571C66.3443 13.1489 66.5132 11.9464 66.1958 10.9368L65.1566 7.83164C64.8545 6.88285 65.0184 5.73111 65.5866 4.78232L65.689 4.62504C65.6941 4.93961 65.7555 5.25418 65.8477 5.53324L67.1787 9.46538C67.3374 9.93723 67.3783 10.4395 67.3374 10.9317C69.38 11.7891 70.7519 13.3772 70.5113 15.0566Z" fill="white"/></g></g><path d="M72.6543 0.266602C74.5885 0.0667786 76.1883 1.71602 75.9209 3.61426L73.4238 21.2061C73.1709 23.0013 71.353 24.1494 69.5977 23.6201L57.9893 20.1084C57.0274 19.8187 56.405 18.9209 56.4531 17.9443L56.4717 17.748L58.5205 3.38086V3.37988C58.6579 2.4028 59.4532 1.64438 60.4443 1.54004L72.6543 0.266602Z" stroke="#ECECEF" stroke-width="0.5" stroke-miterlimit="10"/></svg>